<svg width="12" height="19" viewBox="0 0 12 19" fill="none" xmlns="http://www.w3.org/2000/svg"><path d="M1.8 4.04729H2.4C2.4 2.60136 3.08613 1.26521 4.2 0.542166C5.31387 -0.180722 6.68613 -0.180722 7.8 0.542166C8.91387 1.26521 9.6 2.60136 9.6 4.04729H10.2C10.6775 4.04729 11.1352 4.2605 11.4729 4.63994C11.8104 5.01952 12 5.53416 12 6.07095V16.8638C12 17.4006 11.8104 17.9152 11.4729 18.2948C11.1352 18.6742 10.6775 18.8874 10.2 18.8874H1.8C1.32254 18.8874 0.864789 18.6742 0.527143 18.2948C0.189642 17.9152 0 17.4006 0 16.8638V6.07095C0 5.53416 0.189642 5.01954 0.527143 4.63994C0.864779 4.2605 1.32254 4.04729 1.8 4.04729ZM6 1.34908C5.36345 1.34908 4.75299 1.63336 4.30299 2.13943C3.85286 2.64534 3.6 3.33165 3.6 4.04729H8.4C8.4 3.33165 8.14714 2.64534 7.69701 2.13943C7.24701 1.63336 6.63655 1.34908 6 1.34908Z" fill="#1535A6"/></svg>