<svg width="69" height="22" viewBox="0 0 69 22" fill="none" xmlns="http://www.w3.org/2000/svg">
<g clip-path="url(#clip0_474_743)">
<path d="M69 11C67.5633 11 66.1407 10.7155 64.8134 10.1627C63.4861 9.6099 62.2801 8.79965 61.2642 7.7782C60.2483 6.75676 59.4425 5.54412 58.8927 4.20954C58.3429 2.87495 58.0599 1.44455 58.0599 1.83522e-06" stroke="#1535A6" stroke-miterlimit="10"/>
<path d="M58.0599 22C58.0599 20.5555 58.3429 19.1251 58.8927 17.7905C59.4425 16.4559 60.2483 15.2432 61.2642 14.2218C62.2801 13.2004 63.4861 12.3901 64.8134 11.8373C66.1407 11.2845 67.5633 11 69 11" stroke="#1535A6" stroke-miterlimit="10"/>
<path d="M68.4998 11H-34.5002" stroke="#1535A6"/>
</g>
<defs>
<clipPath id="clip0_474_743">
<rect width="22" height="69" fill="white" transform="translate(0 22) rotate(-90)"/>
</clipPath>
</defs>
</svg>
