<svg width="69" height="22" viewBox="0 0 69 22" fill="none" xmlns="http://www.w3.org/2000/svg">
<g clip-path="url(#clip0_474_748)">
<path d="M-9.94899e-05 11C1.43657 11 2.85917 11.2845 4.18649 11.8373C5.5138 12.3901 6.71982 13.2003 7.7357 14.2218C8.75158 15.2432 9.55742 16.4559 10.1072 17.7905C10.657 19.1251 10.94 20.5555 10.9399 22" stroke="#1535A6" stroke-miterlimit="10"/>
<path d="M10.9399 0C10.94 1.44454 10.657 2.87495 10.1072 4.20953C9.55742 5.54412 8.75158 6.75676 7.7357 7.7782C6.71982 8.79965 5.5138 9.6099 4.18649 10.1627C2.85917 10.7155 1.43657 11 -9.93587e-05 11" stroke="#1535A6" stroke-miterlimit="10"/>
<path d="M0.500244 11L103.5 11" stroke="#1535A6"/>
</g>
<defs>
<clipPath id="clip0_474_748">
<rect width="22" height="69" fill="white" transform="translate(69) rotate(90)"/>
</clipPath>
</defs>
</svg>
