<svg width="47" height="29" viewBox="0 0 47 29" fill="none" xmlns="http://www.w3.org/2000/svg">
<path fill-rule="evenodd" clip-rule="evenodd" d="M39.0486 4.90184C39.0486 7.60905 31.854 9.80368 22.9791 9.80368C14.1041 9.80368 6.90953 7.60905 6.90953 4.90184C6.90953 2.19463 14.1041 0 22.9791 0C31.854 0 39.0486 2.19463 39.0486 4.90184ZM39.2305 22.1084C43.5402 17.7986 45.9613 11.9534 45.9613 5.85857C45.9613 5.68288 45.9597 5.50718 45.9549 5.33309C45.7537 9.03702 35.5443 12.0206 22.9791 12.0206C10.4521 12.0206 0.266733 9.05459 0.0063951 5.36664C0.00160762 5.52955 0 5.69406 0 5.85857C0 11.9534 2.42117 17.7986 6.73088 22.1084C11.0406 26.4181 16.8858 28.8392 22.9807 28.8392C29.0755 28.8392 34.9207 26.4181 39.2305 22.1084ZM43.6245 24.3283C42.4203 24.3283 41.444 25.3045 41.444 26.5088C41.444 27.713 42.4203 28.6892 43.6245 28.6892C44.8287 28.6892 45.805 27.713 45.805 26.5088C45.805 25.3045 44.8287 24.3283 43.6245 24.3283ZM41.144 26.5088C41.144 25.1389 42.2546 24.0283 43.6245 24.0283C44.9944 24.0283 46.105 25.1389 46.105 26.5088C46.105 27.8787 44.9944 28.9892 43.6245 28.9892C42.2546 28.9892 41.144 27.8787 41.144 26.5088ZM43.8346 26.7268L44.456 27.7875H44.759L44.1112 26.6929C44.2755 26.6465 44.4199 26.5473 44.5223 26.4107C44.6114 26.2926 44.6659 26.152 44.6796 26.0047C44.6933 25.8574 44.6656 25.7092 44.5997 25.5768C44.5338 25.4443 44.4322 25.3329 44.3064 25.255C44.1806 25.1771 44.0356 25.1359 43.8877 25.1359H42.827V27.7875H43.0924V26.7268H43.8346ZM43.0924 26.4769V25.3858L43.8877 25.3858C43.9578 25.3848 44.0274 25.3985 44.0919 25.4259C44.1564 25.4533 44.2146 25.4939 44.2626 25.545C44.3623 25.6485 44.418 25.7867 44.418 25.9304C44.418 26.0741 44.3623 26.2123 44.2626 26.3158C44.2149 26.3674 44.1568 26.4084 44.0922 26.4362C44.0277 26.4639 43.958 26.4778 43.8877 26.4769H43.0924Z" fill="#1535A6"/>
</svg>
