<svg width="59" height="45" viewBox="0 0 59 45" fill="none" xmlns="http://www.w3.org/2000/svg">
<path d="M56.9297 30.087L59 28.006L56.757 25.7514C58.0507 23.4968 57.7918 20.6358 55.8944 18.7286L47.3547 10.1446C47.3547 10.1446 47.2686 10.058 47.1819 10.058V2.68785C47.1819 1.21385 45.9743 0 44.5079 0C43.0415 0 41.834 1.21383 41.834 2.68785V8.58388L38.9012 5.63587L39.6777 4.8553L39.2466 4.42202L38.4701 5.20258L37.5214 4.24893L35.4511 6.32992L36.3998 7.28359L29.4133 14.3064L27.5158 12.399C26.6531 11.5319 25.5317 11.0986 25.1006 11.6184L21.909 14.8266C21.478 15.2599 21.8229 16.3871 22.6855 17.2543L23.2893 17.8612C21.3053 16.9941 18.8901 17.4279 17.2514 19.0751L5.17573 31.2134C3.53716 32.8605 3.10547 35.2887 3.96816 37.2826L1.03537 40.2306L1.38031 42.4853L0 43.8727L0.431048 44.306L1.46587 43.2658L1.72472 45L6.46896 40.2311C8.53922 41.2713 11.1271 41.0117 12.9384 39.2775L25.0141 27.1392C26.6527 25.4921 27.0844 23.0638 26.2217 21.0699L28.7229 23.5841C28.809 24.8845 29.4128 26.1855 30.3615 27.1392L38.9012 35.7232C41.1442 37.9778 44.853 37.9778 47.0953 35.7232L49.1656 37.8042L51.2359 35.7232L49.1656 33.6422L54.6857 28.0934L56.9297 30.087ZM39.0745 10.1451L32.2602 16.9949L29.9311 14.6537L36.9177 7.63091L39.2467 9.97207C39.1606 10.0586 39.0745 10.0586 39.0745 10.1452L39.0745 10.1451Z" fill="#1535A6"/>
</svg>
