<?xml version="1.0" encoding="UTF-8" standalone="no"?>
<svg
   xmlns:dc="http://purl.org/dc/elements/1.1/"
   xmlns:cc="http://creativecommons.org/ns#"
   xmlns:rdf="http://www.w3.org/1999/02/22-rdf-syntax-ns#"
   xmlns:svg="http://www.w3.org/2000/svg"
   xmlns="http://www.w3.org/2000/svg"
   style="fill:none"
   id="svg52"
   version="1.1"
   viewBox="0 0 67.081902 38.642582"
   height="38.642582"
   width="67.081902">
  <metadata
     id="metadata58">
    <rdf:RDF>
      <cc:Work
         rdf:about="">
        <dc:format>image/svg+xml</dc:format>
        <dc:type
           rdf:resource="http://purl.org/dc/dcmitype/StillImage" />
        <dc:title></dc:title>
      </cc:Work>
    </rdf:RDF>
  </metadata>
  <defs
     id="defs56" />
  <path
     style="fill:#1535a6"
     id="path2"
     d="m 67.033575,31.244931 c -0.1666,-0.4105 -0.6123,-0.6335 -1.0407,-0.5206 -0.2256,0.0529 -0.4178,0.2001 -0.5277,0.4047 -0.106,0.2068 -0.1255,0.4473 -0.0547,0.6687 0.0721,0.215 0.2269,0.3933 0.43,0.495 0.2002,0.1039 0.4349,0.1198 0.647,0.0437 0.2198,-0.069 0.4016,-0.2245 0.5046,-0.4302 0.1029,-0.2057 0.1183,-0.4445 0.0415,-0.6613 z" />
  <path
     style="fill:#1535a6"
     id="path4"
     d="m 64.341075,31.479431 c -0.0623,0.1712 -0.1905,0.3101 -0.3561,0.3867 -0.1657,0.0766 -0.3543,0.0843 -0.5257,0.0213 -0.0433,-0.0217 -4.3154,-1.5627 -7.7387,0.3304 -3.2245,1.7846 -2.9935,3.8164 -2.9936,3.9249 0.0514,0.3749 -0.2107,0.721 -0.5856,0.7736 -0.1402,0.0244 -0.2849,0.0024 -0.4117,-0.0616 -0.1991,-0.0997 -0.3367,-0.2896 -0.369,-0.5099 -0.0216,-0.1193 -0.4401,-3.0399 3.6951,-5.3269 3.9836,-2.218 8.6894,-0.5148 8.8775,-0.4208 0.1709,0.0629 0.3103,0.1912 0.3864,0.3566 0.0769,0.1652 0.0844,0.3543 0.0213,0.5257 z" />
  <path
     style="fill:#1535a6"
     id="path6"
     d="m 61.381975,27.061731 c -0.07,-0.2203 -0.2263,-0.4032 -0.433,-0.5066 -0.2072,-0.1036 -0.4472,-0.1191 -0.6656,-0.043 -0.4062,0.163 -0.6267,0.6037 -0.5135,1.0265 l 0.0251,0.0757 5e-4,2e-4 c 0.1691,0.3966 0.6002,0.6123 1.019,0.5098 0.4483,-0.1388 0.701,-0.6125 0.5675,-1.0626 z" />
  <path
     style="fill:#1535a6"
     id="path8"
     d="m 64.369775,14.622131 c -0.1058,-0.329 -0.4007,-0.5611 -0.7456,-0.5861 -0.3446,-0.0255 -0.6702,0.1602 -0.8233,0.47 -0.1021,0.2168 -0.1128,0.4661 -0.0289,0.6903 0.0764,0.1977 0.2266,0.3573 0.4192,0.4448 0.1873,0.0956 0.4034,0.1199 0.6073,0.0688 0.2305,-0.0524 0.4262,-0.2029 0.5359,-0.4121 0.1102,-0.209 0.1229,-0.4561 0.0354,-0.6757 z" />
  <path
     style="fill:#1535a6"
     id="path10"
     d="m 59.451875,21.776531 c -0.1489,-0.442 -0.6264,-0.6808 -1.0699,-0.5352 -0.2176,0.0632 -0.3984,0.2154 -0.4985,0.4194 -0.1078,0.2014 -0.1244,0.4389 -0.0473,0.654 0.075,0.214 0.2285,0.3911 0.4299,0.495 0.202,0.0979 0.4342,0.1138 0.647,0.0437 0.2151,-0.0708 0.3926,-0.224 0.4937,-0.4262 0.1012,-0.2021 0.1176,-0.4366 0.0451,-0.6507 z" />
  <path
     style="fill:#1535a6"
     id="path12"
     d="m 56.655175,26.901531 c -0.0663,-0.2052 -0.2117,-0.3757 -0.4043,-0.4733 -0.1893,-0.1029 -0.4119,-0.1267 -0.6184,-0.0655 -0.2365,0.0557 -0.436,0.215 -0.5425,0.434 -0.1006,0.1987 -0.1148,0.4299 -0.0394,0.6397 0.0718,0.2155 0.2265,0.3938 0.4297,0.4955 0.1956,0.0941 0.421,0.106 0.6255,0.0324 0.2131,-0.0655 0.3896,-0.2155 0.4877,-0.4154 0.1049,-0.1996 0.1272,-0.4318 0.0617,-0.6474 z" />
  <path
     style="fill:#1535a6"
     id="path14"
     d="m 61.391975,15.245931 c 0.1528,0.0991 0.2602,0.2549 0.2982,0.4334 0.0375,0.1783 0.0032,0.3641 -0.0959,0.5169 -0.0941,0.188 -2.8458,4.3688 -7.3489,4.9897 l -3e-4,5e-4 c -1.4951,0.2858 -3.0423,0.1049 -4.4313,-0.5182 -0.7124,-0.3274 -1.3116,-0.8598 -1.7198,-1.5292 -0.1764,-0.3404 -0.0437,-0.7594 0.2962,-0.9361 0.3412,-0.1716 0.7564,-0.0401 0.9366,0.2965 0.0504,0.0252 1.073,1.8291 4.7529,1.3384 3.889,-0.5487 6.3625,-4.336 6.3913,-4.3758 l -3e-4,5e-4 c 0.2005,-0.3063 0.6057,-0.4018 0.9216,-0.2166 z" />
  <path
     style="fill:#1535a6"
     id="path16"
     d="m 53.203375,25.817031 c -0.1577,-0.4383 -0.6317,-0.6754 -1.077,-0.5388 -0.3628,0.0662 -0.6349,0.3694 -0.6614,0.7375 -0.0263,0.3676 0.1992,0.7067 0.5491,0.8238 0.2015,0.1014 0.4349,0.1211 0.6505,0.0544 0.4382,-0.1577 0.6753,-0.6317 0.5388,-1.077 z" />
  <path
     style="fill:#1535a6"
     id="path18"
     d="m 47.442775,32.614631 c -0.5501,3.0324 -2.0106,5.0847 -4.1001,5.7748 -0.9964,0.3248 -2.0686,0.3374 -3.0721,0.0358 -2.1108,-0.604 -4.2394,-2.3649 -6.1109,-5.0725 l -0.058,-0.029 c -1.306,-1.9545 -2.3778,-4.056 -3.1934,-6.2611 l -0.0287,-0.0686 c -0.1698,-0.4732 -0.3434,-0.9579 -0.5059,-1.4457 -0.5009,-1.471 -0.8991,-2.9746 -1.1918,-4.5001 -0.1082,-0.5963 -0.2024,-1.1855 -0.2673,-1.7601 -0.0647,-0.5751 -0.1797,-1.3015 -0.1652,-1.8723 -0.0497,-1.046 0.0027,-2.0946 0.156,-3.1305 0.167,-1.2712 0.5807,-2.4976 1.2186,-3.61 0.0868,-0.1735 0.17,-0.3399 0.3218,-0.4808 l 0.029,-0.0579 c 0.6868,-0.9215998 1.6374,-1.6121998 2.7259,-1.9797998 2.1687,-0.7223 4.453,-0.0857 6.6538,1.838 2.4643,2.1367998 4.5635,5.7261998 6.1023,10.3640998 1.5386,4.6371 2.1157,8.8839 1.4859,12.2559 z" />
  <path
     style="fill:#1535a6"
     id="path20"
     d="m 56.663875,14.363631 c -0.1577,-0.4382 -0.6317,-0.6753 -1.077,-0.5388 -0.4558,0.1552 -0.7023,0.6478 -0.5531,1.1057 0.169,0.3966 0.6001,0.6123 1.0189,0.5097 0.2242,-0.0612 0.4148,-0.2091 0.5296,-0.4108 0.1145,-0.2024 0.144,-0.4417 0.0816,-0.6658 z" />
  <path
     style="fill:#1535a6"
     id="path22"
     d="m 53.049575,16.549831 c -0.1509,-0.4443 -0.6309,-0.6844 -1.0769,-0.5388 -0.3626,0.0657 -0.6347,0.3689 -0.6618,0.7368 -0.0263,0.3676 0.1998,0.707 0.5494,0.8245 0.1858,0.1012 0.4034,0.1262 0.6074,0.0687 0.2178,-0.0637 0.3986,-0.2159 0.4985,-0.4194 0.1171,-0.2036 0.1474,-0.4457 0.0834,-0.6718 z" />
  <path
     style="fill:#1535a6"
     id="path24"
     d="m 56.721075,4.9291312 c -0.0636,0.1725 -0.1932,0.3118 -0.3599,0.3879 -0.1674,0.0764 -0.3575,0.0822 -0.5292,0.0171 -0.0433,-0.0217 -4.3008,-1.5554 -7.731,0.3342 -3.2317,1.781 -2.9971,3.8234 -2.9937,3.9249 l -5e-4,-3e-4 c 0.0514,0.3749 -0.2106,0.7209998 -0.5853,0.7730998 -0.1407,0.0242 -0.2852,0.003 -0.4125,-0.0614 -0.1963,-0.0988 -0.3342,-0.2857 -0.372,-0.5024998 0.0112,-0.1482 -0.4291,-3.0798 3.6953,-5.3451 3.9911,-2.1964 8.6857,-0.4895 8.8732,-0.4133 0.358,0.1312 0.5434,0.5265 0.4155,0.8855 z" />
  <path
     style="fill:#1535a6"
     id="path26"
     d="m 36.772075,38.173431 -4.0552,-0.2757 -22.1536,-11.0834 2.8447,-2.3811 19.6896,9.8507 c 1.0067,1.487 2.2474,2.8006 3.675,3.8898 z" />
  <path
     style="fill:#1535a6"
     id="path28"
     d="m 54.687975,7.4916312 c -0.0574,-0.2317 -0.2147,-0.4264 -0.4297,-0.5308 -0.4175,-0.2088 -0.9248,-0.0403 -1.1336,0.3772 -0.2086,0.4169 -0.0396,0.9245 0.3779,1.1334 0.1994,0.0991 0.4298,0.1173 0.6429,0.0505 0.2158,-0.066 0.3941,-0.2195 0.492,-0.4227 0.0953,-0.188 0.1135,-0.4058 0.0505,-0.6076 z" />
  <path
     style="fill:#1535a6"
     id="path30"
     d="m 47.355675,10.952631 c -0.3243,0.1126 -0.5503,0.4081 -0.574,0.7504 -0.0238,0.3424 0.1591,0.6659 0.4649,0.822 0.2002,0.104 0.4349,0.1199 0.6472,0.0433 0.4208,-0.1595 0.6489,-0.6153 0.5242,-1.0477 -0.1457,-0.4422 -0.6135,-0.6927 -1.0623,-0.568 z" />
  <path
     style="fill:#1535a6"
     id="path32"
     d="m 56.555875,0.97883121 c -0.1671,-0.4107 -0.6128,-0.6337 -1.0411,-0.5208 -0.2267,0.0586 -0.4171,0.2124 -0.5218,0.4216 -0.1047,0.20929999 -0.1136,0.45379999 -0.0243,0.66989999 0.0715,0.2161 0.226,0.3949 0.4297,0.4955 0.2007,0.1042 0.4349,0.1199 0.6472,0.0433 0.2176,-0.0758 0.3946,-0.2369 0.4904,-0.4462 0.0962,-0.2097 0.1035,-0.4487 0.0199,-0.66329999 z" />
  <path
     style="fill:#1535a6"
     id="path34"
     d="m 51.159875,0.04203121 c -0.4443,0.1509 -0.6844,0.6309 -0.5388,1.07689999 0.0695,0.2163 0.2268,0.3934 0.4335,0.488 0.1981,0.1054 0.4311,0.1236 0.6434,0.0508 0.2204,-0.0701 0.4032,-0.2263 0.5069,-0.4335 0.1034,-0.2068 0.1188,-0.44679999 0.0427,-0.66509999 -0.1701,-0.4324 -0.6458,-0.6585 -1.0878,-0.5171 z" />
  <path
     style="fill:#1535a6"
     id="path36"
     d="m 29.136275,37.651531 -8.761,-0.606 -13.7911298,-6.8996 2.81978,-2.3664 z" />
  <path
     style="fill:#1535a6"
     id="path38"
     d="m 46.329975,1.9091312 c 0.2967,0.1944 0.6857,0.1728 0.9591,-0.0535 0.2731,-0.2271 0.3665,-0.6053 0.2304,-0.93299999 -0.164,-0.4446 -0.645,-0.6852 -1.0986,-0.5497 -0.4443,0.1509 -0.6847,0.63139999 -0.5388,1.07699999 0.0847,0.2049 0.2452,0.3691 0.4479,0.4592 z" />
  <path
     style="fill:#1535a6"
     id="path40"
     d="m 44.670375,3.8709312 c -0.2131,0.073 -0.3883,0.228 -0.487,0.4302 -0.0986,0.2022 -0.1125,0.4354 -0.0395,0.6484 0.1527,0.4433 0.6357,0.6787 1.079,0.526 0.437,-0.1502 0.6733,-0.6226 0.5315,-1.0623 -0.0718,-0.2156 -0.2263,-0.3944 -0.4295,-0.4961 -0.2037,-0.1019 -0.4389,-0.118 -0.6545,-0.0462 z" />
  <path
     style="fill:#1535a6"
     id="path42"
     d="m 31.655275,32.018431 -17.094,-8.5521 2.5123,-2.0417 12.6488,6.3281 c 0.5433,1.4657 1.1888,2.8907 1.9325,4.2655 z" />
  <path
     style="fill:#1535a6"
     id="path44"
     d="m 29.004475,25.847431 -10.8418,-5.4241 2.7907,-2.291 6.8881,3.4461 c 0.2984,1.446 0.6871,2.8715 1.1629,4.2689 z" />
  <path
     style="fill:#1535a6"
     id="path46"
     d="m 27.578175,19.882631 -5.4572,-2.7302 5.842,-4.8491 c -0.6574,2.4718 -0.7886,5.0538 -0.3848,7.5793 z" />
  <path
     style="fill:#1535a6"
     id="path48"
     d="m 16.785075,36.795731 -7.4706898,-0.5113 -6.30983,-3.1568 2.41829,-2.0163 z" />
  <path
     style="fill:#1535a6"
     id="path50"
     d="M 5.7320552,36.036731 0,35.645131 l 1.8509452,-1.5501 z" />
</svg>
