<svg width="31" height="42" viewBox="0 0 31 42" fill="none" xmlns="http://www.w3.org/2000/svg">
<path d="M28.1115 23.8798C27.3288 23.8652 26.5719 24.1243 26.0071 24.6002C25.4423 25.0761 25.1162 25.7297 25.1006 26.4169C25.091 26.8261 25.0261 27.2323 24.9075 27.6278C24.4672 29.0955 23.3146 30.3191 21.7557 30.974C20.1965 31.629 18.3887 31.6492 16.8114 31.0291C15.234 30.4089 14.0469 29.2114 13.5644 27.7537C13.0818 26.2964 13.3531 24.7264 14.306 23.4602C15.2588 22.194 16.7969 21.3596 18.5129 21.178C20.2284 20.9967 21.9481 21.4869 23.216 22.5185C23.9883 23.1461 25.0828 23.3651 26.0882 23.093C27.0941 22.8209 27.8586 22.0988 28.0947 21.1982C28.3308 20.2978 28.0031 19.3548 27.2345 18.7237C24.7243 16.6765 21.3239 15.6905 17.9197 16.0225C18.5283 14.2267 20.3903 8.81043 21.7133 5.82357V5.82389C22.0721 5.00847 21.9087 4.08726 21.2845 3.4066C20.6601 2.72595 19.6697 2.38937 18.6865 2.52412C17.7033 2.65856 16.8764 3.24351 16.5173 4.05892L12.8171 14.6229L13.3704 2.39562C13.3504 1.53531 12.8174 0.747571 11.9665 0.321412C11.1159 -0.105013 10.0726 -0.107289 9.2195 0.315553C8.36634 0.738395 7.82897 1.52386 7.80449 2.38418L7.26154 15.3723L5.3784 9.96445H5.37877C5.07969 9.14546 4.30845 8.52732 3.35228 8.34082C2.3961 8.15462 1.3995 8.42773 0.73384 9.0589C0.068585 9.68975 -0.165649 10.5836 0.118984 11.4065L0.120837 11.4117L9.15501 36.5613V42H24.0148V35.7641C24.4043 35.6128 24.7845 35.4432 25.1533 35.256C28.6994 33.4377 30.9138 30.1304 30.9994 26.5245C31.0153 25.8373 30.7203 25.1726 30.1785 24.6768C29.637 24.1811 28.8932 23.8943 28.1108 23.88L28.1115 23.8798Z" fill="#1535A6"/>
</svg>
