<svg width="53" height="31" viewBox="0 0 53 31" fill="none" xmlns="http://www.w3.org/2000/svg">
<path d="M32.9513 10.3676C32.9513 14.1618 29.9939 17.2378 26.3453 17.2378C22.6969 17.2378 19.7393 14.1618 19.7393 10.3676C19.7393 6.57285 22.6969 3.49731 26.3453 3.49731C29.994 3.49731 32.9513 6.57296 32.9513 10.3676Z" fill="#1535A6"/>
<path d="M47.2882 7.19519C47.2882 10.9894 44.3305 14.0654 40.6822 14.0654C37.0339 14.0654 34.0762 10.9894 34.0762 7.19519C34.0762 3.40049 37.0339 0.324951 40.6822 0.324951C44.3305 0.324951 47.2882 3.4006 47.2882 7.19519Z" fill="#1535A6"/>
<path d="M32.767 19.2138C36.1223 21.4515 38.6553 25.4138 39.6543 30.1799H52.6154C52.427 21.9669 47.159 15.3811 40.6818 15.3811C37.6441 15.3811 34.8739 16.8288 32.7666 19.2137L32.767 19.2138Z" fill="#1535A6"/>
<path d="M18.6146 7.19519C18.6146 10.9894 15.6573 14.0654 12.0091 14.0654C8.36033 14.0654 5.40308 10.9894 5.40308 7.19519C5.40308 3.40049 8.36043 0.324951 12.0091 0.324951C15.6574 0.324951 18.6146 3.4006 18.6146 7.19519Z" fill="#1535A6"/>
<path d="M19.9238 19.2139C17.8165 16.8296 15.0459 15.3813 12.009 15.3813C5.5319 15.3813 0.264011 21.967 0.0754395 30.1802H13.0365C14.0334 25.4136 16.5685 21.4518 19.9238 19.214V19.2139Z" fill="#1535A6"/>
<path d="M26.3448 18.5532C20.7278 18.5532 16.0219 23.507 14.7488 30.1797H37.9409C36.6665 23.5066 31.9611 18.5532 26.3448 18.5532Z" fill="#1535A6"/>
</svg>