<svg width="31" height="31" viewBox="0 0 31 31" fill="none" xmlns="http://www.w3.org/2000/svg">
<path d="M15.5 0C6.95053 0 0 6.95053 0 15.5C0 24.0495 6.95053 31 15.5 31C24.0495 31 31 24.0495 31 15.5C31 6.95053 24.0495 0 15.5 0ZM22.4505 13.7379L15.5653 20.6558C15.1084 21.1126 14.4884 21.3737 13.8684 21.3737C13.2483 21.3737 12.6283 21.1452 12.1715 20.6558L8.54936 17.0337C7.60316 16.0875 7.60316 14.5537 8.54936 13.6073C9.49556 12.6611 11.0293 12.6611 11.9757 13.6073L13.8684 15.4999L19.0567 10.2788C20.0029 9.33257 21.5367 9.33257 22.4831 10.2788C23.4293 11.2252 23.3968 12.824 22.4506 13.7379H22.4505Z" fill="#1535A6"/>
</svg>
